<?xml version="1.0" encoding="UTF-8" standalone="no"?>
<svg
   xmlns:dc="http://purl.org/dc/elements/1.1/"
   xmlns:cc="http://creativecommons.org/ns#"
   xmlns:rdf="http://www.w3.org/1999/02/22-rdf-syntax-ns#"
   xmlns:svg="http://www.w3.org/2000/svg"
   xmlns="http://www.w3.org/2000/svg"
   viewBox="0 0 1122.52 793.70135"
   height="793.70135"
   width="1122.52"
   xml:space="preserve"
   id="svg2"
   version="1.1"><metadata
     id="metadata8"><rdf:RDF><cc:Work
         rdf:about=""><dc:format>image/svg+xml</dc:format><dc:type
           rdf:resource="http://purl.org/dc/dcmitype/StillImage" /></cc:Work></rdf:RDF></metadata><defs
     id="defs6"><linearGradient
       id="linearGradient30"
       spreadMethod="pad"
       gradientTransform="matrix(-119.99999,-137,-137,119.99999,357.50293,370.63379)"
       gradientUnits="userSpaceOnUse"
       y2="0"
       x2="1"
       y1="0"
       x1="0"><stop
         id="stop24"
         offset="0"
         style="stop-opacity:1;stop-color:#00adef" /><stop
         id="stop26"
         offset="1"
         style="stop-opacity:1;stop-color:#00adef" /><stop
         id="stop28"
         offset="1"
         style="stop-opacity:1;stop-color:#00adef" /></linearGradient><clipPath
       id="clipPath40"
       clipPathUnits="userSpaceOnUse"><path
         id="path38"
         d="M 0,595.276 H 841.89 V 0 H 0 Z" /></clipPath></defs><g
     transform="matrix(1.3333333,0,0,-1.3333333,0,793.70133)"
     id="g10"><g
       id="g12"><g
         id="g14"><g
           id="g20"><g
             id="g22"><path
               id="path32"
               style="fill:url(#linearGradient30);stroke:none"
               d="m 357.218,456.818 c -9.06,-0.148 -14.453,-11.01 -9.715,-19.565 v 0 l 47.324,-85.42 27.173,0.442 -54.407,98.221 c -2.174,3.924 -6.052,6.323 -10.2,6.323 v 0 c -0.058,0 -0.117,-0.001 -0.175,-0.001" /></g></g></g></g><g
       id="g34"><g
         clip-path="url(#clipPath40)"
         id="g36"><g
           transform="translate(385.6372,352.2754)"
           id="g42"><path
             id="path44"
             style="fill:#782f9a;fill-opacity:1;fill-rule:nonzero;stroke:none"
             d="M 0,0 -25.854,-0.421 -37.088,21.23 c -4.524,8.721 0.588,19.783 9.208,19.923 4.009,0.065 7.777,-2.395 9.881,-6.452 z" /></g><g
           transform="translate(302.8584,349.2754)"
           id="g46"><path
             id="path48"
             style="fill:#ed481f;fill-opacity:1;fill-rule:nonzero;stroke:none"
             d="m 0,0 25.854,0.421 25.338,55.1 c 4.073,8.858 -1.595,19.741 -10.212,19.606 -4.012,-0.063 -7.654,-2.645 -9.55,-6.769 z" /></g></g></g><text
       id="text52"
       style="font-variant:normal;font-weight:300;font-stretch:normal;font-size:33px;font-family:'Segoe UI Variable Small Light';-inkscape-font-specification:SegoeUIVariable;writing-mode:lr-tb;fill:#4c4237;fill-opacity:1;fill-rule:nonzero;stroke:none"
       transform="matrix(1,0,0,-1,422.1094,383.979)"><tspan
         id="tspan50"
         y="0"
         x="0 23.198999 49.269001 67.960197 86.456703 119.6217 144.6357 166.18469 187.7997">ANTSWORX </tspan></text>
<text
       id="text56"
       style="font-variant:normal;font-weight:300;font-stretch:normal;font-size:25px;font-family:'Segoe UI Variable Small Light';-inkscape-font-specification:SegoeUIVariable;writing-mode:lr-tb;fill:#4c4237;fill-opacity:1;fill-rule:nonzero;stroke:none"
       transform="matrix(1,0,0,-1,423.3604,353.979)"><tspan
         id="tspan54"
         y="0"
         x="0 14.65 27.950001 43.549999 62.700001 82.449997 101.4 113.3275 132.2775 150.05251 157.97749 171.2775">TECHNOLOGIES</tspan></text>
</g></svg>