<!--?xml version="1.0" standalone="no"?-->
              <svg id="sw-js-blob-svg" viewBox="0 0 100 100" xmlns="http://www.w3.org/2000/svg" version="1.1">
                    <defs> 
                        <linearGradient id="sw-gradient" x1="0" x2="1" y1="1" y2="0">
                            <stop id="stop1" stop-color="rgba(248, 117, 55, 1)" offset="0%"></stop>
                            <stop id="stop2" stop-color="rgba(251, 168, 31, 1)" offset="100%"></stop>
                        </linearGradient>
                    </defs>
                <path fill="url(#sw-gradient)" d="M19.6,-28.7C26,-26.4,32,-21.9,33.7,-16C35.3,-10.2,32.6,-2.9,30.9,4C29.3,11,28.6,17.6,25.1,21.7C21.5,25.8,15,27.3,8.9,28.3C2.7,29.2,-3,29.5,-9.8,29.4C-16.5,29.2,-24.3,28.5,-30.5,24.6C-36.7,20.7,-41.3,13.7,-41.5,6.5C-41.7,-0.6,-37.4,-7.9,-33.6,-14.9C-29.7,-21.9,-26.3,-28.8,-20.8,-31.4C-15.2,-34,-7.6,-32.4,-0.5,-31.6C6.6,-30.8,13.3,-30.9,19.6,-28.7Z" width="100%" height="100%" transform="translate(50 50)" stroke-width="0" style="transition: all 0.3s ease 0s;"></path>
              </svg>